<svg width="20" height="17" viewBox="0 0 20 17" fill="none" xmlns="http://www.w3.org/2000/svg">
<path fill-rule="evenodd" clip-rule="evenodd" d="M1.17647 0H2.78075C3.42246 0 3.95722 0.534759 3.95722 1.17647V2.78075C3.95722 3.42246 3.42246 3.95722 2.78075 3.95722H1.17647C0.534759 3.95722 0 3.42246 0 2.78075V1.17647C0 0.534759 0.534759 0 1.17647 0ZM7.16578 0.641711H18.8235C19.4652 0.641711 20 1.17647 20 1.81818V2.24599C20 2.8877 19.4652 3.42246 18.8235 3.42246H7.16578C6.52406 3.42246 5.9893 2.8877 5.9893 2.24599V1.81818C5.9893 1.17647 6.52406 0.641711 7.16578 0.641711ZM1.17647 5.9893H2.78075C3.42246 5.9893 3.95722 6.52406 3.95722 7.16577V8.77005C3.95722 9.51872 3.42246 10.0535 2.78075 10.0535H1.17647C0.534759 10.0535 0 9.51872 0 8.77005V7.16577C0 6.52406 0.534759 5.9893 1.17647 5.9893ZM7.16578 6.63102H18.8235C19.4652 6.63102 20 7.16577 20 7.80749V8.23529C20 8.877 19.4652 9.41176 18.8235 9.41176H7.16578C6.52406 9.41176 5.9893 8.877 5.9893 8.23529V7.80749C5.9893 7.16577 6.52406 6.63102 7.16578 6.63102ZM1.17647 11.9786H2.78075C3.42246 11.9786 3.95722 12.5134 3.95722 13.262V14.8663C3.95722 15.508 3.42246 16.0428 2.78075 16.0428H1.17647C0.534759 16.0428 0 15.508 0 14.8663V13.262C0 12.5134 0.534759 11.9786 1.17647 11.9786ZM7.16578 12.6203H18.8235C19.4652 12.6203 20 13.1551 20 13.7968V14.2246C20 14.8663 19.4652 15.4011 18.8235 15.4011H7.16578C6.52406 15.4011 5.9893 14.8663 5.9893 14.2246V13.7968C5.9893 13.1551 6.52406 12.6203 7.16578 12.6203Z" fill="url(#paint0_linear_1034_8530)"/>
<defs>
<linearGradient id="paint0_linear_1034_8530" x1="0" y1="8.02139" x2="20" y2="8.02139" gradientUnits="userSpaceOnUse">
<stop stop-color="#4776E6"/>
<stop offset="1" stop-color="#8E54E9"/>
</linearGradient>
</defs>
</svg>
