<svg width="63" height="63" viewBox="0 0 63 63" fill="none" xmlns="http://www.w3.org/2000/svg">
<path d="M0 1C0 0.447715 0.447716 0 1 0H16.5789V3.31579H3.81579C3.53965 3.31579 3.31579 3.53965 3.31579 3.81579V16.5789H0V1Z" fill="#E0E0E0"/>
<path d="M3.31579 59.1842C3.31579 59.4604 3.53965 59.6842 3.81579 59.6842H16.5789V63H1C0.447715 63 0 62.5523 0 62V46.4211H3.31579V59.1842Z" fill="#E0E0E0"/>
<path d="M63 1C63 0.447715 62.5523 0 62 0H46.4211V3.31579H59.1842C59.4604 3.31579 59.6842 3.53965 59.6842 3.81579V16.5789H63V1Z" fill="#E0E0E0"/>
<path d="M46.4211 59.6842H59.1842C59.4604 59.6842 59.6842 59.4604 59.6842 59.1842V46.4211H63V62C63 62.5523 62.5523 63 62 63H46.4211V59.6842Z" fill="#E0E0E0"/>
<path fill-rule="evenodd" clip-rule="evenodd" d="M13.2632 36.4737H26.5263V49.7368H13.2632V36.4737ZM16.5789 39.7895H23.2105V46.4211H16.5789V39.7895Z" fill="#E0E0E0"/>
<path fill-rule="evenodd" clip-rule="evenodd" d="M49.7368 13.2632H36.4737V26.5263H49.7368V13.2632ZM46.4211 16.5789H39.7895V23.2105H46.4211V16.5789Z" fill="#E0E0E0"/>
<path fill-rule="evenodd" clip-rule="evenodd" d="M13.2632 13.2632H26.5263V26.5263H13.2632V13.2632ZM16.5789 16.5789H23.2105V23.2105H16.5789V16.5789Z" fill="#E0E0E0"/>
<path d="M29.8421 16.5789H33.1579V26.5263H29.8421V16.5789Z" fill="#E0E0E0"/>
<path d="M29.8421 39.7895H33.1579V29.8421H23.2105V33.1579H29.8421V39.7895Z" fill="#E0E0E0"/>
<path d="M13.2632 29.8421H16.5789V33.1579H13.2632V29.8421Z" fill="#E0E0E0"/>
<path d="M43.1053 29.8421H39.7895V33.1579H43.1053V36.4737H39.7895V43.1053H29.8421V49.7368H33.1579V46.4211H43.1053V49.7368H46.4211V46.4211H43.1053V36.4737H46.4211V43.1053H49.7368V36.4737H46.4211V33.1579H49.7368V29.8421H46.4211V33.1579H43.1053V29.8421Z" fill="#E0E0E0"/>
</svg>
