<svg width="161" height="131" viewBox="0 0 161 131" fill="none" xmlns="http://www.w3.org/2000/svg">
<g clip-path="url(#clip0_1161_22352)">
<path d="M82.2397 1.48294C50.278 0.561215 22.596 23.2495 18.4115 53.0172C13.8375 85.5631 39.0096 114.851 69.9804 119.537C108.502 125.37 145.869 91.6214 142.511 55.0078C139.984 27.421 114.729 2.42197 82.2397 1.48294Z" fill="#F4F7FA"/>
<path d="M101.341 104.339C99.0515 100.436 101.271 93.9409 103.989 90.1371C107.161 85.6973 109.74 86.7099 111.938 83.0619C116.032 76.2723 108.775 69.9804 112.362 62.8057C115.292 56.9421 121.255 58.924 124.206 52.2816C126.335 47.4869 124.254 44.1548 127.482 40.5934C127.759 40.2905 130.78 37.0493 134.454 37.6379C138.158 38.2307 140.36 42.3763 141.079 45.2367C142.407 50.5247 138.88 52.221 138.158 59.0712C137.171 68.3966 143.125 70.7723 140.979 77.4883C139.209 83.036 134.739 82.6898 132.896 88.8779C131.186 94.6246 134.419 97.0089 132.896 100.761C129.395 109.402 106.006 112.297 101.341 104.339Z" fill="url(#paint0_linear_1161_22352)"/>
<path opacity="0.7" d="M104.439 110.489C104.4 110.489 104.366 110.458 104.361 110.419C104.357 110.376 104.387 110.337 104.43 110.333C108.399 109.913 112.107 108.68 115.448 106.672C118.616 104.768 121.887 102.799 123.341 99.1769C124.44 96.4377 123.834 94.4212 123.068 91.8637C122.324 89.3712 121.394 86.2728 121.909 81.5344C122.203 78.8298 122.566 75.4631 124.912 72.2738C126.279 70.4174 127.603 69.6212 128.776 68.9202C130.001 68.1888 130.966 67.609 131.528 66.0598C132.45 63.5283 131.844 61.356 131.143 58.8331C130.71 57.2753 130.265 55.6655 130.096 53.7528C129.62 48.3696 132.16 42.5796 137.651 36.5473C137.682 36.517 137.729 36.5127 137.764 36.543C137.794 36.5733 137.799 36.6209 137.768 36.6555C132.312 42.6532 129.78 48.4042 130.256 53.7399C130.425 55.6396 130.871 57.2407 131.299 58.7942C132.004 61.3387 132.614 63.5369 131.68 66.116C131.096 67.7172 130.061 68.3403 128.863 69.0586C127.707 69.751 126.396 70.5386 125.046 72.3691C122.726 75.5237 122.363 78.8644 122.073 81.5517C121.562 86.2598 122.488 89.3409 123.228 91.8204C124.003 94.4039 124.613 96.4464 123.497 99.2375C122.025 102.911 118.728 104.893 115.543 106.81C112.181 108.831 108.451 110.073 104.461 110.493C104.443 110.489 104.439 110.489 104.439 110.489Z" fill="white"/>
<path opacity="0.7" d="M123.977 73.9658C123.947 73.9658 123.916 73.9485 123.903 73.9182C120.701 66.6656 120.195 61.0487 120.338 57.6128C120.493 53.887 121.419 51.8445 121.428 51.8272C121.445 51.7882 121.493 51.7709 121.532 51.7882C121.571 51.8055 121.588 51.8531 121.571 51.8921C121.562 51.9137 120.645 53.9303 120.493 57.6301C120.355 61.0444 120.857 66.631 124.046 73.8533C124.063 73.8923 124.046 73.9399 124.007 73.9572C123.999 73.9615 123.986 73.9658 123.977 73.9658Z" fill="white"/>
<path opacity="0.7" d="M121.861 85.4722C121.826 85.4722 121.796 85.4506 121.787 85.416C121.774 85.3727 121.8 85.3294 121.844 85.3208C131.048 82.8758 135.579 77.5575 137.759 73.5201C140.122 69.1495 140.308 65.3112 140.313 65.2722C140.313 65.2289 140.347 65.1987 140.391 65.1987C140.391 65.1987 140.391 65.1987 140.395 65.1987C140.438 65.1987 140.473 65.2376 140.468 65.2809C140.468 65.3198 140.278 69.1928 137.898 73.5937C135.704 77.6571 131.143 83.01 121.882 85.4679C121.874 85.4722 121.87 85.4722 121.861 85.4722Z" fill="white"/>
<path opacity="0.7" d="M119.009 104.772C118.992 104.772 118.975 104.768 118.957 104.755C112.068 98.8221 109.844 92.6989 109.19 88.6096C108.481 84.1741 109.42 81.0973 109.428 81.067C109.441 81.0238 109.485 81.0021 109.528 81.0151C109.567 81.0281 109.593 81.0714 109.58 81.1146C109.571 81.1449 108.645 84.1914 109.346 88.5923C109.995 92.6556 112.211 98.7356 119.061 104.638C119.096 104.668 119.096 104.716 119.07 104.751C119.052 104.764 119.031 104.772 119.009 104.772Z" fill="white"/>
<path opacity="0.7" d="M130.269 52.896C130.239 52.896 130.208 52.8787 130.195 52.8484C130.178 52.8095 130.195 52.7619 130.239 52.7446C136.898 49.9275 139.733 45.1242 140.94 41.593C142.247 37.7633 141.974 34.5568 141.97 34.5222C141.966 34.4789 141.996 34.4399 142.039 34.4356C142.083 34.4313 142.122 34.4616 142.126 34.5049C142.13 34.5352 142.407 37.772 141.092 41.632C139.876 45.1977 137.02 50.04 130.304 52.8831C130.286 52.8961 130.278 52.896 130.269 52.896Z" fill="white"/>
<path d="M105.14 90.0073C100.432 88.0038 97.9913 82.1619 97.8356 77.5273C97.5932 70.3742 102.899 69.2188 103.535 61.5334C104.214 53.3591 98.463 51.6714 99.4367 43.9212C100.328 36.82 105.27 37.2787 107.442 28.9096C109.628 20.4973 105.482 17.0311 108.974 10.2026C109.641 8.90002 112.375 3.54711 117.17 3.19659C121.182 2.90233 124.808 6.24304 126.327 9.43229C128.045 13.037 126.357 14.941 126.521 21.3152C126.747 30.0304 130.001 30.1213 129.408 36.0411C128.62 43.9515 122.739 45.6002 123.449 51.9311C123.925 56.1892 126.907 56.1978 128.642 61.1873C131.126 68.3144 128.079 77.0123 123.207 82.4951C122.571 83.2134 113.241 93.4519 105.14 90.0073Z" fill="url(#paint1_linear_1161_22352)"/>
<path d="M105.14 90.0073C100.432 88.0038 97.9913 82.1619 97.8356 77.5273C97.5932 70.3742 102.899 69.2188 103.535 61.5334C104.214 53.3591 98.463 51.6714 99.4367 43.9212C100.328 36.82 105.27 37.2787 107.442 28.9096C109.628 20.4973 105.482 17.0311 108.974 10.2026C109.641 8.90002 112.375 3.54711 117.17 3.19659C121.182 2.90233 124.808 6.24304 126.327 9.43229C128.045 13.037 126.357 14.941 126.521 21.3152C126.747 30.0304 130.001 30.1213 129.408 36.0411C128.62 43.9515 122.739 45.6002 123.449 51.9311C123.925 56.1892 126.907 56.1978 128.642 61.1873C131.126 68.3144 128.079 77.0123 123.207 82.4951C122.571 83.2134 113.241 93.4519 105.14 90.0073Z" fill="url(#paint2_linear_1161_22352)"/>
<path opacity="0.7" d="M107.927 92.5173C107.91 92.5173 107.888 92.5086 107.875 92.4957C107.845 92.4654 107.84 92.4178 107.871 92.3831C113.206 86.697 115.829 80.9676 115.664 75.3464C115.586 72.6851 114.911 71.097 114.124 69.2622C113.336 67.4144 112.44 65.3243 111.839 61.6158C110.657 54.3069 111.268 47.6817 113.652 41.935C114.963 38.7761 116.313 37.1273 117.395 35.7989C118.628 34.2886 119.602 33.0986 119.992 30.4459C120.446 27.3519 119.589 25.2921 118.602 22.9034C117.767 20.8868 116.82 18.602 116.521 15.2829C116.084 10.3974 116.867 5.26948 118.845 0.0507037C118.862 0.0117577 118.905 -0.00987927 118.944 0.00310275C118.983 0.0204121 119.005 0.0636863 118.992 0.102632C117.023 5.29977 116.244 10.4017 116.677 15.2656C116.971 18.5631 117.914 20.8349 118.745 22.8428C119.745 25.2531 120.606 27.3303 120.147 30.4676C119.749 33.1635 118.763 34.3708 117.516 35.8984C116.439 37.2182 115.097 38.8583 113.795 41.9956C111.419 47.7163 110.809 54.3112 111.99 61.5941C112.587 65.2853 113.479 67.3668 114.262 69.2059C115.054 71.058 115.738 72.6591 115.816 75.3464C115.98 81.0109 113.345 86.7792 107.979 92.4957C107.966 92.5086 107.949 92.5173 107.927 92.5173Z" fill="white"/>
<path opacity="0.7" d="M119.922 26.1921C119.909 26.1921 119.901 26.1878 119.888 26.1835C114.301 23.5308 110.908 18.3164 109.043 14.4088C107.027 10.181 106.321 6.52871 106.313 6.48976C106.304 6.44649 106.334 6.40754 106.373 6.39889C106.417 6.39023 106.456 6.42052 106.464 6.45947C106.473 6.49409 107.174 10.1291 109.186 14.3439C111.038 18.2255 114.409 23.4097 119.953 26.0407C119.991 26.058 120.009 26.1056 119.991 26.1445C119.979 26.1748 119.948 26.1921 119.922 26.1921Z" fill="white"/>
<path opacity="0.7" d="M113.236 43.3111C113.193 43.3111 113.159 43.2765 113.159 43.2376C113.159 43.1943 113.189 43.1597 113.232 43.1553C120.757 42.8741 124.808 38.2525 126.885 34.4314C129.135 30.2815 129.607 26.1489 129.611 26.1056C129.615 26.0623 129.654 26.032 129.698 26.0364C129.741 26.0407 129.771 26.0796 129.767 26.1229C129.763 26.1662 129.287 30.3291 127.019 34.505C124.929 38.365 120.84 43.0255 113.236 43.3111C113.241 43.3111 113.236 43.3111 113.236 43.3111Z" fill="white"/>
<path opacity="0.7" d="M111.25 51.8662C111.242 51.8662 111.229 51.8662 111.22 51.8576C104.776 49.0708 102.388 44.1895 101.518 40.5892C100.575 36.6903 101.163 33.4058 101.172 33.3755C101.18 33.3322 101.219 33.3063 101.263 33.3149C101.306 33.3236 101.332 33.3625 101.323 33.4058C101.319 33.4404 100.735 36.6946 101.669 40.5632C102.531 44.129 104.902 48.9539 111.28 51.7191C111.319 51.7364 111.337 51.784 111.319 51.823C111.311 51.8489 111.28 51.8662 111.25 51.8662Z" fill="white"/>
<path opacity="0.7" d="M115.513 73.2173C115.474 73.2173 115.443 73.1913 115.435 73.1524C115.426 73.1091 115.456 73.0702 115.495 73.0615C122.32 71.7633 125.916 67.1201 127.729 63.4505C129.698 59.4693 130.057 55.7435 130.057 55.7089C130.061 55.6656 130.105 55.6353 130.143 55.6396C130.187 55.644 130.217 55.6829 130.213 55.7262C130.208 55.7651 129.849 59.5126 127.872 63.5197C126.041 67.2239 122.415 71.9104 115.526 73.2216C115.521 73.2173 115.517 73.2173 115.513 73.2173Z" fill="white"/>
<path opacity="0.7" d="M113.029 85.68C113.025 85.68 113.02 85.68 113.016 85.68C106.867 84.7929 103.44 80.1064 101.648 76.333C99.7094 72.2523 99.216 68.3274 99.2117 68.2885C99.2074 68.2452 99.2377 68.2062 99.281 68.2019C99.3199 68.1976 99.3632 68.2279 99.3675 68.2712C99.3718 68.3101 99.8651 72.2134 101.791 76.2681C103.565 80.0069 106.958 84.6458 113.038 85.5243C113.081 85.5286 113.111 85.5719 113.102 85.6108C113.102 85.6541 113.068 85.68 113.029 85.68Z" fill="white"/>
<path d="M62.4639 100.769C67.1721 98.7659 69.6127 92.924 69.7685 88.2894C70.0108 81.1363 64.7055 79.9809 64.0694 72.2956C63.39 64.1212 69.141 62.4336 68.1674 54.6833C67.2759 47.5821 62.3341 48.0408 60.1618 39.6718C57.9765 31.2594 62.1221 27.7932 58.6299 20.9647C57.9635 19.6621 55.2286 14.3092 50.4339 13.9587C46.4225 13.6644 42.7962 17.0052 41.2773 20.1944C39.5593 23.7991 41.247 25.7031 41.0825 32.0773C40.8575 40.7925 37.6034 40.8834 38.1962 46.8032C38.9838 54.7136 44.8646 56.3623 44.155 62.6932C43.6789 66.9513 40.6974 66.96 38.9621 71.9494C36.4782 79.0765 39.5247 87.7745 44.3973 93.2572C45.0377 93.9712 54.3675 104.214 62.4639 100.769Z" fill="url(#paint3_linear_1161_22352)"/>
<path d="M62.4639 100.769C67.1721 98.7659 69.6127 92.924 69.7685 88.2894C70.0108 81.1363 64.7055 79.9809 64.0694 72.2956C63.39 64.1212 69.141 62.4336 68.1674 54.6833C67.2759 47.5821 62.3341 48.0408 60.1618 39.6718C57.9765 31.2594 62.1221 27.7932 58.6299 20.9647C57.9635 19.6621 55.2286 14.3092 50.4339 13.9587C46.4225 13.6644 42.7962 17.0052 41.2773 20.1944C39.5593 23.7991 41.247 25.7031 41.0825 32.0773C40.8575 40.7925 37.6034 40.8834 38.1962 46.8032C38.9838 54.7136 44.8646 56.3623 44.155 62.6932C43.6789 66.9513 40.6974 66.96 38.9621 71.9494C36.4782 79.0765 39.5247 87.7745 44.3973 93.2572C45.0377 93.9712 54.3675 104.214 62.4639 100.769Z" fill="url(#paint4_linear_1161_22352)"/>
<path opacity="0.7" d="M59.6815 103.279C59.6598 103.279 59.6382 103.271 59.6252 103.253C54.2593 97.5369 51.624 91.7685 51.7884 86.104C51.8663 83.4124 52.55 81.8157 53.3419 79.9636C54.1252 78.1244 55.0166 76.043 55.6138 72.3518C56.7908 65.0689 56.185 58.4783 53.8093 52.7533C52.5067 49.6159 51.1653 47.9759 50.0878 46.656C48.8415 45.1285 47.8548 43.9212 47.4567 41.2252C46.9937 38.0879 47.8592 36.0064 48.8588 33.6004C49.6896 31.5969 50.633 29.3207 50.9273 26.0233C51.36 21.1593 50.5811 16.0574 48.6121 10.8603C48.5948 10.8213 48.6165 10.7737 48.6597 10.7607C48.6987 10.7434 48.7463 10.7651 48.7593 10.804C50.7369 16.0271 51.5201 21.1507 51.083 26.0363C50.7845 29.3597 49.8368 31.6402 49.0016 33.6567C48.0106 36.0454 47.1538 38.1052 47.6125 41.1993C48.002 43.8519 48.9756 45.0463 50.2089 46.5522C51.2951 47.8807 52.6409 49.5294 53.9521 52.6883C56.3408 58.4394 56.9509 65.0602 55.7652 72.3691C55.1637 76.0776 54.2723 78.1677 53.4847 80.0155C52.7015 81.8546 52.0221 83.4384 51.9442 86.0997C51.7797 91.7209 54.4021 97.4503 59.7377 103.136C59.768 103.167 59.7637 103.219 59.7334 103.249C59.7204 103.271 59.6988 103.279 59.6815 103.279Z" fill="white"/>
<path opacity="0.7" d="M47.6861 36.9542C47.6558 36.9542 47.6298 36.9369 47.6168 36.9109C47.5995 36.8719 47.6168 36.8244 47.6558 36.807C53.2034 34.1717 56.5744 28.9875 58.4265 25.1059C60.4344 20.8954 61.1398 17.2604 61.1441 17.2258C61.1527 17.1826 61.1917 17.1566 61.235 17.1652C61.2782 17.1739 61.3042 17.2128 61.2955 17.2561C61.2869 17.2907 60.5815 20.943 58.565 25.1752C56.7042 29.0827 53.3073 34.2972 47.7207 36.9498C47.7077 36.9498 47.6947 36.9542 47.6861 36.9542Z" fill="white"/>
<path opacity="0.7" d="M54.3673 54.0731C46.7642 53.7875 42.6749 49.127 40.5804 45.267C38.3172 41.0911 37.8369 36.9282 37.8326 36.8849C37.8282 36.8416 37.8585 36.8027 37.9018 36.7984C37.9451 36.794 37.984 36.8243 37.9883 36.8676C37.9927 36.9109 38.4687 41.0478 40.7189 45.1977C42.7917 49.0188 46.8421 53.636 54.3673 53.9173C54.4106 53.9173 54.4452 53.9563 54.4409 53.9995C54.4452 54.0385 54.4106 54.0731 54.3673 54.0731Z" fill="white"/>
<path opacity="0.7" d="M56.3537 62.6283C56.3234 62.6283 56.2931 62.611 56.2801 62.5807C56.2628 62.5417 56.2801 62.4941 56.3191 62.4768C62.7019 59.7117 65.069 54.8824 65.9301 51.3166C66.8648 47.4523 66.2806 44.1982 66.2763 44.1679C66.2676 44.1246 66.2979 44.0856 66.3369 44.077C66.3802 44.0683 66.4191 44.0986 66.4278 44.1376C66.4321 44.1722 67.0206 47.4566 66.0816 51.3512C65.2118 54.9516 62.8231 59.8285 56.3797 62.6196C56.3753 62.6283 56.3667 62.6283 56.3537 62.6283Z" fill="white"/>
<path opacity="0.7" d="M52.0913 83.9793C52.0869 83.9793 52.0826 83.9793 52.0783 83.9793C45.1891 82.6682 41.5628 77.9817 39.7324 74.2775C37.7505 70.2703 37.3913 66.5229 37.3913 66.4839C37.387 66.4406 37.4172 66.4017 37.4605 66.3974C37.4995 66.393 37.5427 66.4233 37.5471 66.4666C37.5514 66.5056 37.9062 70.2271 39.8752 74.2082C41.6883 77.8778 45.2843 82.521 52.1086 83.8192C52.1518 83.8279 52.1778 83.8668 52.1691 83.9101C52.1605 83.9534 52.1302 83.9793 52.0913 83.9793Z" fill="white"/>
<path opacity="0.7" d="M54.5752 96.4421C54.5362 96.4421 54.5016 96.4162 54.4973 96.3772C54.493 96.3339 54.5189 96.295 54.5622 96.2907C60.6421 95.4122 64.0304 90.7733 65.809 87.0345C67.7346 82.9754 68.2279 79.0765 68.2323 79.0376C68.2366 78.9943 68.2799 78.964 68.3188 78.9683C68.3621 78.9727 68.3924 79.0116 68.3881 79.0549C68.3837 79.0938 67.8904 83.0187 65.9518 87.0994C64.1602 90.8728 60.733 95.555 54.5838 96.4465C54.5838 96.4421 54.5795 96.4421 54.5752 96.4421Z" fill="white"/>
<path d="M117.114 31.1078L93.3827 4.10524C92.396 3.04937 90.3838 3.2917 88.9558 3.21814C87.5191 3.14457 86.1387 3.65087 85.1218 4.61587L57.3965 30.9304C55.4405 32.7912 54.2765 35.314 54.2765 37.945V111.813C54.2765 116.499 58.3572 119.862 63.2514 119.251L112.081 113.172C116.253 112.652 119.572 108.74 119.572 104.487V37.4128C119.572 35.063 118.698 32.8042 117.114 31.1078ZM88.7524 34.4615C85.1347 34.4702 82.1792 31.5665 82.1792 27.9792C82.1792 24.3875 85.1391 21.5271 88.7524 21.5877C92.3311 21.6483 95.2001 24.5476 95.2001 28.07C95.2001 31.5925 92.3268 34.4529 88.7524 34.4615Z" fill="url(#paint5_linear_1161_22352)"/>
<path d="M119.355 31.1122L95.1569 5.0876C94.1789 4.03606 92.8331 3.39994 91.4181 3.33071C89.9944 3.26147 88.6226 3.75911 87.61 4.72411L73.9832 17.7234L60.1747 30.9435C58.2317 32.7956 57.1628 35.3141 57.1628 37.9321V111.527C57.1628 116.196 61.1873 119.533 66.0425 118.927L101.596 114.478L114.349 112.886C118.494 112.367 121.774 108.459 121.774 104.223V37.3912C121.774 35.0544 120.926 32.8042 119.355 31.1122ZM91.2103 21.631C94.7631 21.6873 97.6105 24.5823 97.6105 28.0874C97.6105 31.5926 94.7588 34.4443 91.2103 34.4573C87.623 34.4659 84.6847 31.5752 84.6847 27.9965C84.6847 24.4222 87.623 21.5704 91.2103 21.631Z" fill="url(#paint6_linear_1161_22352)"/>
<g opacity="0.15">
<path opacity="0.15" d="M88.5966 61.2954C88.4711 69.552 83.3086 73.8447 77.5576 73.8231C71.2916 73.7971 66.2719 68.9938 66.3887 61.1093C66.5012 53.6101 71.2267 48.2658 78.2456 48.7894C85.0569 49.3 88.6961 54.5578 88.5966 61.2954ZM73.7236 61.1396C73.6586 65.4497 75.0694 68.5783 77.8215 68.6303C80.4699 68.6779 81.794 65.9776 81.8633 61.4599C81.9239 57.3748 80.8767 54.151 77.9817 53.9779C75.1646 53.8048 73.7841 57.02 73.7236 61.1396ZM79.5352 87.6879L99.4885 51.5589C99.8693 50.8665 100.618 50.4641 101.406 50.5203C102.868 50.6285 103.729 52.2123 103.028 53.5019L83.2956 89.6222C82.9581 90.241 82.3177 90.6391 81.6123 90.6694L81.3916 90.678C79.8165 90.7516 78.7736 89.0683 79.5352 87.6879ZM113.678 77.5056C113.561 85.152 109.13 89.3409 104.21 89.5529C98.9173 89.7866 94.6506 85.5675 94.7025 78.2975C94.8064 71.3868 98.8351 66.2459 104.824 66.406C110.653 66.5661 113.773 71.2656 113.678 77.5056ZM101.003 78.0076C100.891 81.9844 102.089 84.8145 104.439 84.7453C106.707 84.6804 107.84 82.1272 107.901 77.947C107.957 74.1693 107.118 71.2353 104.642 71.205C102.189 71.1791 101.064 74.2082 101.003 78.0076Z" fill="url(#paint7_linear_1161_22352)"/>
</g>
<path d="M89.5572 60.9146C89.4317 69.1711 84.2692 73.4639 78.5182 73.4422C72.2522 73.4163 67.2325 68.6129 67.3493 60.7285C67.4618 53.2292 72.1873 47.885 79.2062 48.4086C86.0174 48.9149 89.6611 54.1726 89.5572 60.9146ZM74.6841 60.7545C74.6192 65.0645 76.0299 68.1932 78.7821 68.2451C81.4305 68.2927 82.7546 65.5924 82.8239 61.0747C82.8844 56.9897 81.8372 53.7658 78.9422 53.5927C76.1251 53.4239 74.749 56.6348 74.6841 60.7545ZM80.5001 87.3027L100.453 51.1737C100.834 50.4814 101.583 50.0789 102.37 50.1352C103.833 50.2434 104.694 51.8272 103.993 53.1167L84.2605 89.237C83.923 89.8558 83.2826 90.2539 82.5772 90.2842L82.3565 90.2929C80.7814 90.3664 79.7385 88.6831 80.5001 87.3027ZM114.643 77.1205C114.526 84.7669 110.095 88.9557 105.175 89.1678C99.8822 89.4014 95.6155 85.1823 95.6674 77.9124C95.7713 71.0016 99.8 65.8607 105.789 66.0208C111.618 66.1809 114.738 70.8804 114.643 77.1205ZM101.968 77.6224C101.855 81.5993 103.054 84.4293 105.404 84.3601C107.671 84.2952 108.805 81.7421 108.866 77.5618C108.922 73.7841 108.083 70.8501 105.607 70.8199C103.154 70.7939 102.024 73.823 101.968 77.6224Z" fill="white"/>
<path opacity="0.35" d="M101.57 114.478L66.0425 118.927C61.1873 119.537 57.1628 116.201 57.1628 111.527V37.9364C57.1628 35.3141 58.2317 32.7999 60.1747 30.9478L74.0092 17.7234C71.3911 26.1315 72.1138 32.2719 73.5721 36.6036C78.1937 50.317 91.6734 51.0439 95.1612 64.9131C97.9783 76.1122 90.5786 81.2098 91.5652 93.5817C92.0369 99.4842 94.3996 106.724 101.57 114.478Z" fill="white"/>
<path d="M56.8772 73.1653C57.1628 72.9446 57.4484 72.7282 57.7383 72.5075C57.9893 72.5767 62.1089 73.8187 62.9225 77.4407C63.035 77.9383 63.4461 79.7774 62.4421 80.9545C60.7545 82.9321 55.8603 82.1531 53.5624 79.388C51.7579 77.2113 51.5329 73.7841 52.5758 73.1393C53.8394 72.3604 57.5999 75.2683 57.8855 75.4934C58.461 75.9391 58.9846 76.4108 59.0755 76.3285C59.2356 76.1857 57.998 74.5673 56.8772 73.1653Z" fill="url(#paint8_linear_1161_22352)"/>
<path d="M25.1621 98.8091C25.1621 98.8091 25.3828 98.2379 25.0366 97.9393C24.6948 97.6407 22.7907 96.7796 21.8387 96.7969C20.8867 96.8142 21.6526 97.5498 22.1979 97.9653C22.7431 98.3807 24.011 99.2548 24.3399 99.3284C24.6688 99.4063 25.1621 98.8091 25.1621 98.8091Z" fill="url(#paint9_linear_1161_22352)"/>
<path d="M26.8454 99.8174C26.2915 99.3847 25.8068 99.0514 25.4433 98.8048C24.6341 98.2682 24.2749 98.1038 23.9158 97.9912C23.5999 97.8917 22.8902 97.71 22.8209 97.8571C22.7517 98.0086 23.4138 98.3591 25.0365 99.5924C25.2702 99.7698 26.0188 100.341 26.0188 100.341L26.8454 99.8174Z" fill="url(#paint10_linear_1161_22352)"/>
<path d="M50.9833 125.318C50.9833 125.318 50.7626 125.89 51.1045 126.188C51.4463 126.487 53.346 127.352 54.3024 127.335C55.2544 127.318 54.4884 126.582 53.9432 126.167C53.398 125.751 52.13 124.877 51.8012 124.803C51.4809 124.721 50.9833 125.318 50.9833 125.318Z" fill="url(#paint11_linear_1161_22352)"/>
<path d="M51.1219 122.796C51.083 123.523 51.1566 124.111 51.2388 124.522C51.3513 125.106 51.4205 125.44 51.6975 125.734C52.1865 126.253 53.0476 126.357 53.1688 126.145C53.3116 125.907 52.4028 125.444 52.0999 124.336C51.9658 123.851 52.0004 123.41 52.0523 123.103L51.1219 122.796Z" fill="url(#paint12_linear_1161_22352)"/>
<path d="M54.389 93.2009C55.6742 94.5554 55.393 96.4897 54.9905 99.9559C54.653 102.864 54.1943 107.165 53.7616 112.609C53.3678 116.408 52.974 120.203 52.5845 124.003C51.9311 124.003 51.2733 124.003 50.6199 124.003C49.815 122.298 48.8587 119.689 48.8111 116.46C48.7721 113.786 49.3953 113.436 49.5164 110.411C49.5813 108.745 49.4342 107.814 48.1836 100.588C47.1883 94.841 46.9893 93.7635 47.7898 92.8893C49.2005 91.3445 52.7533 91.4829 54.389 93.2009Z" fill="url(#paint13_linear_1161_22352)"/>
<path opacity="0.4" d="M50.4598 119.663C50.7973 118.602 51.6974 117.521 51.758 115.422C51.8315 112.942 50.6415 112.323 50.8146 110C50.9834 107.767 52.1345 107.602 52.4633 105.404C52.8485 102.846 51.4248 102.18 50.9315 99.1596C50.4814 96.4031 51.1348 93.7158 51.8142 91.92C50.2867 91.643 48.6466 91.9546 47.7898 92.8936C46.9892 93.7677 47.184 94.8452 48.1836 100.592C49.4385 107.814 49.5857 108.749 49.5164 110.415C49.3953 113.44 48.7721 113.79 48.8111 116.465C48.8587 119.693 49.815 122.302 50.6199 124.007C50.8363 124.007 51.0526 124.007 51.269 124.007C50.2174 122.09 50.1309 120.701 50.4598 119.663Z" fill="url(#paint14_linear_1161_22352)"/>
<path d="M24.8202 100.142C27.5724 103.937 32.8387 110.203 37.3911 109.143C39.7971 108.58 40.6712 106.282 47.7464 96.5633C49.4471 94.2265 50.8967 92.3008 51.9266 90.9507C49.1788 90.2713 46.4266 89.5876 43.6787 88.9082C41.8223 91.972 40.602 94.564 39.8447 96.3123C38.0359 100.497 37.3868 103.349 35.7424 103.522C34.9375 103.608 34.4182 102.998 33.3061 102.107C31.8521 100.943 29.6019 99.4669 26.2352 98.3331C25.7636 98.9347 25.2919 99.5405 24.8202 100.142Z" fill="url(#paint15_linear_1161_22352)"/>
<path d="M52.5109 68.1629C51.8921 67.1676 50.9357 66.7738 49.8669 66.3541C48.4821 65.8088 47.859 65.9213 46.8291 65.6574C44.2846 65.0126 44.237 63.3509 41.9522 62.2041C39.0312 60.7415 37.6075 62.7018 35.1842 61.4122C32.4667 59.9626 33.4273 57.046 31.0257 55.1116C27.6936 52.4244 19.8957 53.2595 17.4421 57.8941C16.0271 60.5684 16.2911 64.6967 18.2903 67.0118C19.4544 68.3619 21.129 69.0803 21.0468 70.2833C20.9862 71.1401 19.9736 71.2569 19.3808 72.4729C18.6149 74.0437 19.3245 75.8439 19.4414 76.1339C20.5059 78.8341 25.3612 80.5001 29.6366 79.9203C37.3479 78.8817 40.7578 70.8891 45.6651 72.4037C46.5695 72.685 47.872 73.4596 49.6938 73.1739C50.2434 73.0874 52.1864 72.7845 52.8744 71.1747C53.4802 69.764 52.6148 68.336 52.5109 68.1629Z" fill="url(#paint16_linear_1161_22352)"/>
<path d="M43.7871 72.2912C45.8945 72.2825 48.5082 72.3042 51.1738 72.5898C56.9119 73.1956 56.6825 76.0473 55.644 78.6524C54.5838 81.3093 54.6227 83.6504 54.6444 84.4856C54.679 85.8314 54.9213 86.9046 55.4103 89.0596C56.2585 92.8028 56.8902 93.6639 56.2931 94.6202C55.4233 96.0136 52.9783 95.9487 52.5543 95.9271C50.3863 95.8232 49.9276 94.551 48.0971 94.3476C45.9724 94.1139 45.4834 95.7107 42.5278 96.7839C39.04 98.0518 34.5525 97.7143 32.4668 95.3818C31.6619 94.4818 31.1469 93.2355 31.4931 92.8417C31.9648 92.3094 33.6048 93.8457 35.3488 93.2355C36.5042 92.8331 36.4003 91.9416 37.7851 91.0761C39.4511 90.0333 40.4291 90.7992 41.5585 90.1285C43.3197 89.0769 42.9432 86.0132 43.086 80.9718C43.1423 78.8774 43.3067 75.9045 43.7871 72.2912Z" fill="url(#paint17_linear_1161_22352)"/>
<path d="M43.787 72.2912C40.7275 72.4383 39.6327 75.6232 36.4391 76.255C34.5048 76.6358 31.6185 76.1122 27.4729 72.0878C26.8844 72.3604 26.2959 72.633 25.7117 72.9013C26.3175 76.5146 27.9922 78.5442 28.8144 79.3967C33.5182 84.2779 42.4412 84.1264 47.2705 79.9419C48.785 78.6307 49.6419 77.1421 50.1049 76.1641C48.5817 74.2688 46.3574 72.1657 43.787 72.2912Z" fill="url(#paint18_linear_1161_22352)"/>
<path d="M50.4857 69.9371C50.2953 69.7987 50.027 69.8895 49.9535 70.1145C49.7544 70.7334 49.339 71.7892 48.7764 72.0532C47.9629 72.434 46.7426 72.2652 46.5868 72.4167C46.431 72.5681 50.2347 74.5414 52.7662 73.6413C52.7835 73.637 52.8008 73.6283 52.8182 73.6197L52.961 73.5418C53.2466 73.386 53.1817 72.9619 52.8658 72.897C52.3768 72.8018 51.0959 72.434 50.7757 71.8758C50.7367 71.8109 50.7281 71.3089 50.7367 71.2353L50.8406 70.4175C50.8579 70.292 50.8016 70.1665 50.6978 70.0929L50.4857 69.9371Z" fill="url(#paint19_linear_1161_22352)"/>
<path d="M49.8886 70.3655C49.8886 70.3655 50.2997 71.1012 51.1089 70.9108C51.8316 70.742 51.6326 68.9029 51.1089 68.6346C50.9359 68.5437 50.594 68.5351 50.3517 68.6476C50.1829 68.7255 49.6982 69.2015 49.867 69.8203C49.6982 69.7467 49.5381 69.777 49.4905 69.8592C49.4299 69.9631 49.5598 70.1318 49.59 70.1665C49.6852 70.2963 49.8237 70.3439 49.8886 70.3655Z" fill="url(#paint20_linear_1161_22352)"/>
<path d="M26.9797 72.3128L26.6897 71.7459C26.6897 71.7459 28.1654 69.3356 26.9537 68.9505C25.7464 68.5653 26.0882 69.2534 26.2224 69.5823C26.3609 69.9111 26.1402 70.9843 25.9281 71.3089C25.7204 71.6378 26.0839 72.7282 26.0839 72.7282L26.9797 72.3128Z" fill="url(#paint21_linear_1161_22352)"/>
<path opacity="0.3" d="M37.4171 95.1871C38.1787 94.6678 37.6551 93.6509 38.5163 92.8287C39.3038 92.0758 40.1693 92.5258 41.58 92.1234C43.2763 91.6387 44.5918 90.2626 45.1933 89.0596C45.6217 88.2028 45.5871 87.6402 45.1933 83.2437C44.8169 79.0591 44.7087 78.0379 44.1721 77.8994C43.1941 77.6527 42.3157 80.7295 40.403 80.7295C39.3211 80.7295 39.174 79.7472 37.8109 79.2366C35.4958 78.3668 33.8427 80.4136 31.3675 80.3357C30.7357 80.3184 29.9698 80.1496 29.0913 79.6606C32.657 83.1009 38.3994 83.8538 43.0556 82.2917C42.9907 86.5454 43.1595 89.1678 41.5584 90.1198C40.4289 90.7949 39.4466 90.0246 37.7849 91.0675C36.4002 91.933 36.504 92.8244 35.3486 93.2269C33.6047 93.837 31.9647 92.3008 31.493 92.8331C31.1771 93.1879 31.5795 94.2438 32.2546 95.1092C32.6527 94.9448 33.0898 94.8236 33.5701 94.789C35.3962 94.6549 36.517 95.8016 37.4171 95.1871Z" fill="url(#paint22_linear_1161_22352)"/>
<path d="M59.1446 63.3379L58.9282 62.7797L59.4865 62.2257C59.6119 62.1003 59.8023 62.0743 59.9581 62.1565C60.7803 62.5892 63.2599 64.1298 63.9999 67.2584C64.0388 67.4229 63.9696 67.596 63.8311 67.6869C63.5758 67.8556 63.2729 67.9984 63.2729 67.9984L59.1446 63.3379Z" fill="url(#paint23_linear_1161_22352)"/>
<path d="M56.3623 70.1189L56.6955 71.9493C56.6955 71.9493 56.7128 72.4773 56.7994 72.685C56.5916 72.9619 56.068 73.0918 56.068 73.0918L55.0251 71.0233L56.3017 70.1102L56.3623 70.1189Z" fill="url(#paint24_linear_1161_22352)"/>
<path d="M57.5393 72.6589L57.2407 71.9146C57.2407 71.9146 56.9681 71.3261 56.2021 71.2266C55.4362 71.1271 55.4448 71.5425 55.4448 71.5425L55.9468 71.6896C55.9468 71.6896 56.2713 71.7848 56.492 72.2522C56.8036 72.7282 57.1368 72.9705 57.1368 72.9705L57.5393 72.6589Z" fill="url(#paint25_linear_1161_22352)"/>
<path d="M53.3289 70.4866C53.3289 70.4866 57.9851 66.0251 58.9284 62.7796C62.2388 63.6927 63.2688 68.0027 63.2688 68.0027C63.2688 68.0027 56.6003 70.1751 54.415 71.8757C53.6361 71.7026 53.3289 70.4866 53.3289 70.4866Z" fill="url(#paint26_linear_1161_22352)"/>
<path d="M65.8867 67.7907C65.7006 67.7258 65.5535 67.5614 65.5189 67.3537C64.5625 61.594 60.5381 60.6766 60.4992 60.6679C60.1963 60.603 60.0015 60.3044 60.0664 60.0015C60.1313 59.6986 60.4299 59.5039 60.7328 59.5688C60.9276 59.6121 65.5492 60.6636 66.631 67.1719C66.6829 67.4792 66.4752 67.7691 66.168 67.8167C66.0685 67.8297 65.9733 67.821 65.8867 67.7907Z" fill="url(#paint27_linear_1161_22352)"/>
<path d="M126.032 96.3036C125.864 96.3036 125.717 96.1738 125.704 96.0007C125.414 92.9456 124.418 90.0463 122.899 87.8307C121.554 85.8704 119.957 84.6977 118.62 84.6977H118.615C113.747 84.7063 112.73 95.8839 112.717 95.9964C112.7 96.1781 112.54 96.3166 112.358 96.2993C112.176 96.282 112.038 96.1219 112.055 95.9401C112.098 95.4555 113.141 84.0443 118.611 84.0313H118.615C120.195 84.0313 121.956 85.2775 123.445 87.4542C125.024 89.7607 126.058 92.7725 126.361 95.9358C126.379 96.1175 126.245 96.282 126.063 96.2993C126.054 96.3036 126.041 96.3036 126.032 96.3036Z" fill="url(#paint28_linear_1161_22352)"/>
<path d="M105.75 119.308L112.159 122.553L116.041 110.636L109.64 94.6592L107.827 95.1049L105.075 118.048C105.015 118.568 105.283 119.07 105.75 119.308Z" fill="url(#paint29_linear_1161_22352)"/>
<path opacity="0.52" d="M116.041 110.636L109.64 94.6592L108.572 94.9231C108.424 97.0565 108.489 98.8134 108.589 100.09C109.017 105.529 110.441 107.044 109.753 110.835C109.177 113.989 107.927 114.418 108.035 116.538C108.156 118.849 109.766 120.788 111.683 122.307L112.155 122.545L116.041 110.636Z" fill="url(#paint30_linear_1161_22352)"/>
<path d="M109.645 94.6635H133.54L141.446 120.19L112.159 122.553L109.645 94.6635Z" fill="url(#paint31_linear_1161_22352)"/>
<path d="M117.045 96.8489C116.893 96.8489 116.759 96.745 116.72 96.5935C116.651 96.3036 115.084 89.4621 117.296 86.1041C117.932 85.1434 118.814 84.5549 119.931 84.3558C125.652 83.3476 129.178 95.6372 129.326 96.1608C129.373 96.3382 129.274 96.52 129.096 96.5719C128.919 96.6238 128.737 96.52 128.685 96.3426C128.651 96.2214 125.184 84.1049 120.048 85.0136C119.109 85.178 118.39 85.654 117.854 86.4719C115.794 89.5919 117.356 96.3729 117.369 96.4421C117.412 96.6195 117.3 96.8013 117.123 96.8402C117.097 96.8489 117.071 96.8489 117.045 96.8489Z" fill="url(#paint32_linear_1161_22352)"/>
<g opacity="0.3">
<path opacity="0.3" d="M133.54 94.6635H121.688C121.104 95.2563 120.688 95.9444 120.649 96.7103C120.463 100.324 128.767 101.509 129.568 106.46C130.148 110.03 126.591 114.154 123.419 115.989C120.078 117.923 117.815 116.945 115.552 119.091C114.561 120.035 113.955 121.216 113.596 122.436L141.451 120.19L133.54 94.6635Z" fill="url(#paint33_linear_1161_22352)"/>
</g>
<path d="M117.049 97.8311C117.563 97.8311 117.979 97.4146 117.979 96.9007C117.979 96.3869 117.563 95.9704 117.049 95.9704C116.535 95.9704 116.119 96.3869 116.119 96.9007C116.119 97.4146 116.535 97.8311 117.049 97.8311Z" fill="url(#paint34_linear_1161_22352)"/>
<path d="M129.161 97.7446C129.675 97.7446 130.091 97.3281 130.091 96.8142C130.091 96.3004 129.675 95.8839 129.161 95.8839C128.647 95.8839 128.231 96.3004 128.231 96.8142C128.231 97.3281 128.647 97.7446 129.161 97.7446Z" fill="url(#paint35_linear_1161_22352)"/>
</g>
<defs>
<linearGradient id="paint0_linear_1161_22352" x1="134.394" y1="55.3438" x2="91.7211" y2="151.211" gradientUnits="userSpaceOnUse">
<stop offset="0.00359712" stop-color="#E38DDD"/>
<stop offset="1" stop-color="#9571F6"/>
</linearGradient>
<linearGradient id="paint1_linear_1161_22352" x1="138.949" y1="-11.1038" x2="122.348" y2="32.1762" gradientUnits="userSpaceOnUse">
<stop stop-color="#AA80F9"/>
<stop offset="0.9964" stop-color="#6165D7"/>
</linearGradient>
<linearGradient id="paint2_linear_1161_22352" x1="138.949" y1="-11.1038" x2="122.348" y2="32.1762" gradientUnits="userSpaceOnUse">
<stop stop-color="#AA80F9"/>
<stop offset="0.9964" stop-color="#6165D7"/>
</linearGradient>
<linearGradient id="paint3_linear_1161_22352" x1="28.6568" y1="-0.342243" x2="45.2574" y2="42.9378" gradientUnits="userSpaceOnUse">
<stop stop-color="#AA80F9"/>
<stop offset="0.9964" stop-color="#6165D7"/>
</linearGradient>
<linearGradient id="paint4_linear_1161_22352" x1="75.6403" y1="2.99479" x2="40.8048" y2="93.816" gradientUnits="userSpaceOnUse">
<stop offset="0.00359712" stop-color="#E38DDD"/>
<stop offset="1" stop-color="#9571F6"/>
</linearGradient>
<linearGradient id="paint5_linear_1161_22352" x1="81.2945" y1="219.811" x2="105.986" y2="-431.754" gradientUnits="userSpaceOnUse">
<stop offset="0.003597" stop-color="#F36F56"/>
<stop offset="1" stop-color="#FFC444"/>
</linearGradient>
<linearGradient id="paint6_linear_1161_22352" x1="71.7969" y1="537.418" x2="96.3854" y2="-111.437" gradientUnits="userSpaceOnUse">
<stop offset="0.003597" stop-color="#F36F56"/>
<stop offset="1" stop-color="#FFC444"/>
</linearGradient>
<linearGradient id="paint7_linear_1161_22352" x1="66.2596" y1="69.5227" x2="113.788" y2="70.2405" gradientUnits="userSpaceOnUse">
<stop stop-color="#FF9085"/>
<stop offset="1" stop-color="#FB6FBB"/>
</linearGradient>
<linearGradient id="paint8_linear_1161_22352" x1="38.3503" y1="152.127" x2="56.6487" y2="80.3592" gradientUnits="userSpaceOnUse">
<stop stop-color="#AA80F9"/>
<stop offset="0.9964" stop-color="#6165D7"/>
</linearGradient>
<linearGradient id="paint9_linear_1161_22352" x1="27.0801" y1="102.943" x2="18.7081" y2="91.2278" gradientUnits="userSpaceOnUse">
<stop stop-color="#AB316D"/>
<stop offset="1" stop-color="#792D3D"/>
</linearGradient>
<linearGradient id="paint10_linear_1161_22352" x1="23.1914" y1="96.3976" x2="33.943" y2="112.566" gradientUnits="userSpaceOnUse">
<stop stop-color="#FFC444"/>
<stop offset="0.9964" stop-color="#F36F56"/>
</linearGradient>
<linearGradient id="paint11_linear_1161_22352" x1="49.0726" y1="121.181" x2="57.4277" y2="132.908" gradientUnits="userSpaceOnUse">
<stop stop-color="#AB316D"/>
<stop offset="1" stop-color="#792D3D"/>
</linearGradient>
<linearGradient id="paint12_linear_1161_22352" x1="51.488" y1="126.66" x2="55.6253" y2="112.942" gradientUnits="userSpaceOnUse">
<stop stop-color="#FFC444"/>
<stop offset="0.9964" stop-color="#F36F56"/>
</linearGradient>
<linearGradient id="paint13_linear_1161_22352" x1="56.7471" y1="123.32" x2="50.2652" y2="100.575" gradientUnits="userSpaceOnUse">
<stop stop-color="#444B8C"/>
<stop offset="0.9964" stop-color="#26264F"/>
</linearGradient>
<linearGradient id="paint14_linear_1161_22352" x1="55.5523" y1="123.661" x2="49.0704" y2="100.915" gradientUnits="userSpaceOnUse">
<stop stop-color="#444B8C"/>
<stop offset="0.9964" stop-color="#26264F"/>
</linearGradient>
<linearGradient id="paint15_linear_1161_22352" x1="44.6147" y1="106.954" x2="35.7514" y2="90.7471" gradientUnits="userSpaceOnUse">
<stop stop-color="#444B8C"/>
<stop offset="0.9964" stop-color="#26264F"/>
</linearGradient>
<linearGradient id="paint16_linear_1161_22352" x1="-0.657074" y1="86.4727" x2="44.1722" y2="58.6989" gradientUnits="userSpaceOnUse">
<stop stop-color="#444B8C"/>
<stop offset="0.9964" stop-color="#26264F"/>
</linearGradient>
<linearGradient id="paint17_linear_1161_22352" x1="29.591" y1="149.893" x2="47.8894" y2="78.1259" gradientUnits="userSpaceOnUse">
<stop stop-color="#AA80F9"/>
<stop offset="0.9964" stop-color="#6165D7"/>
</linearGradient>
<linearGradient id="paint18_linear_1161_22352" x1="19.361" y1="147.285" x2="37.6594" y2="75.5177" gradientUnits="userSpaceOnUse">
<stop stop-color="#AA80F9"/>
<stop offset="0.9964" stop-color="#6165D7"/>
</linearGradient>
<linearGradient id="paint19_linear_1161_22352" x1="47.553" y1="78.5024" x2="51.9023" y2="67.8764" gradientUnits="userSpaceOnUse">
<stop stop-color="#FFC444"/>
<stop offset="0.9964" stop-color="#F36F56"/>
</linearGradient>
<linearGradient id="paint20_linear_1161_22352" x1="48.9713" y1="67.9329" x2="57.8736" y2="77.338" gradientUnits="userSpaceOnUse">
<stop stop-color="#FFC444"/>
<stop offset="0.9964" stop-color="#F36F56"/>
</linearGradient>
<linearGradient id="paint21_linear_1161_22352" x1="26.867" y1="66.6936" x2="26.0576" y2="81.5155" gradientUnits="userSpaceOnUse">
<stop stop-color="#FFC444"/>
<stop offset="0.9964" stop-color="#F36F56"/>
</linearGradient>
<linearGradient id="paint22_linear_1161_22352" x1="29.0936" y1="86.6289" x2="45.5063" y2="86.6289" gradientUnits="userSpaceOnUse">
<stop stop-color="#AA80F9"/>
<stop offset="0.9964" stop-color="#6165D7"/>
</linearGradient>
<linearGradient id="paint23_linear_1161_22352" x1="63.2836" y1="63.2714" x2="59.1326" y2="67.5602" gradientUnits="userSpaceOnUse">
<stop stop-color="#AB316D"/>
<stop offset="1" stop-color="#792D3D"/>
</linearGradient>
<linearGradient id="paint24_linear_1161_22352" x1="57.8746" y1="69.8303" x2="53.4925" y2="74.3578" gradientUnits="userSpaceOnUse">
<stop stop-color="#AB316D"/>
<stop offset="1" stop-color="#792D3D"/>
</linearGradient>
<linearGradient id="paint25_linear_1161_22352" x1="55.9931" y1="71.1952" x2="57.082" y2="72.8247" gradientUnits="userSpaceOnUse">
<stop stop-color="#FFC444"/>
<stop offset="0.9964" stop-color="#F36F56"/>
</linearGradient>
<linearGradient id="paint26_linear_1161_22352" x1="58.6529" y1="63.1617" x2="57.5947" y2="81.315" gradientUnits="userSpaceOnUse">
<stop stop-color="#444B8C"/>
<stop offset="0.9964" stop-color="#26264F"/>
</linearGradient>
<linearGradient id="paint27_linear_1161_22352" x1="62.4319" y1="64.2346" x2="64.9667" y2="62.7145" gradientUnits="userSpaceOnUse">
<stop stop-color="#AB316D"/>
<stop offset="1" stop-color="#792D3D"/>
</linearGradient>
<linearGradient id="paint28_linear_1161_22352" x1="110.496" y1="88.2114" x2="113.404" y2="89.2916" gradientUnits="userSpaceOnUse">
<stop stop-color="#AB316D"/>
<stop offset="1" stop-color="#792D3D"/>
</linearGradient>
<linearGradient id="paint29_linear_1161_22352" x1="102.35" y1="98.2062" x2="110.451" y2="111.791" gradientUnits="userSpaceOnUse">
<stop stop-color="#FF9085"/>
<stop offset="1" stop-color="#FB6FBB"/>
</linearGradient>
<linearGradient id="paint30_linear_1161_22352" x1="103.603" y1="97.4593" x2="111.704" y2="111.044" gradientUnits="userSpaceOnUse">
<stop stop-color="#FF9085"/>
<stop offset="1" stop-color="#FB6FBB"/>
</linearGradient>
<linearGradient id="paint31_linear_1161_22352" x1="116.452" y1="103.679" x2="139.26" y2="121.252" gradientUnits="userSpaceOnUse">
<stop stop-color="#FF9085"/>
<stop offset="1" stop-color="#FB6FBB"/>
</linearGradient>
<linearGradient id="paint32_linear_1161_22352" x1="120.934" y1="83.1994" x2="123.261" y2="98.0312" gradientUnits="userSpaceOnUse">
<stop stop-color="#AB316D"/>
<stop offset="1" stop-color="#792D3D"/>
</linearGradient>
<linearGradient id="paint33_linear_1161_22352" x1="116.747" y1="103.296" x2="139.555" y2="120.869" gradientUnits="userSpaceOnUse">
<stop stop-color="#FF9085"/>
<stop offset="1" stop-color="#FB6FBB"/>
</linearGradient>
<linearGradient id="paint34_linear_1161_22352" x1="115.796" y1="96.4355" x2="116.17" y2="96.5745" gradientUnits="userSpaceOnUse">
<stop stop-color="#AB316D"/>
<stop offset="1" stop-color="#792D3D"/>
</linearGradient>
<linearGradient id="paint35_linear_1161_22352" x1="127.909" y1="96.3493" x2="128.284" y2="96.4884" gradientUnits="userSpaceOnUse">
<stop stop-color="#AB316D"/>
<stop offset="1" stop-color="#792D3D"/>
</linearGradient>
<clipPath id="clip0_1161_22352">
<rect width="161" height="130.765" fill="white" transform="translate(0 0.205872)"/>
</clipPath>
</defs>
</svg>
