<svg width="11" height="21" viewBox="0 0 11 21" fill="none" xmlns="http://www.w3.org/2000/svg">
<path d="M2.50127 0.203789C2.71473 0.203062 2.92564 0.25016 3.1185 0.341621C3.31136 0.433083 3.48128 0.566582 3.61576 0.732311L10.517 9.30293C10.7272 9.55852 10.842 9.87913 10.842 10.21C10.842 10.5408 10.7272 10.8615 10.517 11.117L3.37286 19.6877C3.13033 19.9794 2.78182 20.1628 2.404 20.1976C2.02618 20.2325 1.65 20.1158 1.35821 19.8734C1.06642 19.6309 0.882921 19.2825 0.848086 18.9048C0.813252 18.5271 0.929933 18.151 1.17246 17.8593L7.55932 10.2028L1.38678 2.54642C1.21206 2.33675 1.10108 2.08143 1.06696 1.81067C1.03284 1.53992 1.07701 1.26505 1.19425 1.0186C1.3115 0.77216 1.4969 0.564447 1.72853 0.420048C1.96016 0.275646 2.22832 0.2006 2.50127 0.203789Z" fill="#555555"/>
</svg>
