<svg width="163" height="55" viewBox="0 0 163 55" fill="none" xmlns="http://www.w3.org/2000/svg">
<path d="M1.73404 0.946777H0V54.925H1.73404V0.946777Z" fill="black"/>
<path d="M5.20213 0.946777H3.46808V54.925H5.20213V0.946777Z" fill="black"/>
<path d="M51.4433 0.946777H53.1773V43.8481H51.4433V0.946777Z" fill="black"/>
<path d="M58.3794 0.946777H56.6454V43.8481H58.3794V0.946777Z" fill="black"/>
<path d="M63.5816 0.946777H65.3156V43.8481H63.5816V0.946777Z" fill="black"/>
<path d="M68.7837 0.946777H67.0496V43.8481H68.7837V0.946777Z" fill="black"/>
<path d="M79.1879 0.946777H80.922V43.8481H79.1879V0.946777Z" fill="black"/>
<path d="M84.3901 0.946777H82.656V43.8481H84.3901V0.946777Z" fill="black"/>
<path d="M86.1241 0.946777H87.8582V43.8481H86.1241V0.946777Z" fill="black"/>
<path d="M90.7482 0.946777H89.0142V43.8481H90.7482V0.946777Z" fill="black"/>
<path d="M97.6844 0.946777H99.4184V43.8481H97.6844V0.946777Z" fill="black"/>
<path d="M102.887 0.946777H101.152V43.8481H102.887V0.946777Z" fill="black"/>
<path d="M109.823 0.946777H111.557V43.8481H109.823V0.946777Z" fill="black"/>
<path d="M115.025 0.946777H113.291V43.8481H115.025V0.946777Z" fill="black"/>
<path d="M121.961 0.946777H123.695V43.8481H121.961V0.946777Z" fill="black"/>
<path d="M127.163 0.946777H125.429V43.8481H127.163V0.946777Z" fill="black"/>
<path d="M134.099 0.946777H135.833V43.8481H134.099V0.946777Z" fill="black"/>
<path d="M139.301 0.946777H137.567V43.8481H139.301V0.946777Z" fill="black"/>
<path d="M153.174 0.946777H154.908V43.8481H153.174V0.946777Z" fill="black"/>
<path d="M159.532 0.946777H157.798V54.925H159.532V0.946777Z" fill="black"/>
<path d="M161.266 0.946777H163V54.925H161.266V0.946777Z" fill="black"/>
<path d="M12.1383 0.946777H10.4043V43.8481H12.1383V0.946777Z" fill="black"/>
<path d="M13.8723 0.946777H16.7624V43.8481H13.8723V0.946777Z" fill="black"/>
<path d="M21.9645 0.946777H19.0745V43.8481H21.9645V0.946777Z" fill="black"/>
<path d="M26.0106 0.946777H28.9007V43.8481H26.0106V0.946777Z" fill="black"/>
<path d="M34.1028 0.946777H31.2128V43.8481H34.1028V0.946777Z" fill="black"/>
<path d="M38.1489 0.946777H41.039V43.8481H38.1489V0.946777Z" fill="black"/>
<path d="M49.7092 0.946777H46.8191V43.8481H49.7092V0.946777Z" fill="black"/>
<path d="M73.9858 0.946777H76.8759V43.8481H73.9858V0.946777Z" fill="black"/>
<path d="M150.862 0.946777H145.66V43.8481H150.862V0.946777Z" fill="black"/>
<path d="M16.9751 47.475C17.9531 47.475 18.7057 47.7915 19.2328 48.4246C19.7669 49.0577 20.034 49.9552 20.034 51.117C20.034 51.9309 19.8883 52.6266 19.597 53.2041C19.3126 53.7745 18.9103 54.2093 18.3901 54.5085C17.8768 54.8007 17.2768 54.9468 16.5901 54.9468C16.2364 54.9468 15.9035 54.912 15.5913 54.8424C15.2792 54.7659 15.0087 54.6581 14.7798 54.5189L15.1752 53.705C15.5289 53.9345 15.9971 54.0493 16.5797 54.0493C17.3358 54.0493 17.9254 53.8163 18.3485 53.3502C18.7785 52.8771 18.9935 52.1918 18.9935 51.2944V51.0335C18.7854 51.3465 18.4976 51.5866 18.13 51.7535C17.7624 51.9135 17.3497 51.9935 16.8919 51.9935C16.4133 51.9935 15.9832 51.9031 15.6017 51.7222C15.2272 51.5413 14.9324 51.2839 14.7174 50.95C14.5093 50.6091 14.4053 50.2195 14.4053 49.7812C14.4053 49.3221 14.5162 48.9186 14.7382 48.5707C14.9671 48.2229 15.2757 47.955 15.6642 47.7672C16.0526 47.5724 16.4896 47.475 16.9751 47.475ZM17.0687 51.1483C17.3947 51.1483 17.6861 51.0857 17.9427 50.9604C18.1993 50.8352 18.397 50.6648 18.5357 50.4491C18.6814 50.2334 18.7542 49.9934 18.7542 49.729C18.7542 49.4716 18.6849 49.2386 18.5461 49.0299C18.4144 48.8142 18.2167 48.6438 17.9531 48.5185C17.6965 48.3864 17.3843 48.3203 17.0167 48.3203C16.5381 48.3203 16.1497 48.449 15.8514 48.7064C15.5601 48.9638 15.4145 49.3082 15.4145 49.7395C15.4145 50.1708 15.5636 50.5152 15.8618 50.7726C16.1601 51.023 16.5624 51.1483 17.0687 51.1483Z" fill="black"/>
<path d="M26.2866 47.475C27.2646 47.475 28.0171 47.7915 28.5443 48.4246C29.0784 49.0577 29.3454 49.9552 29.3454 51.117C29.3454 51.9309 29.1997 52.6266 28.9084 53.2041C28.624 53.7745 28.2217 54.2093 27.7015 54.5085C27.1883 54.8007 26.5883 54.9468 25.9016 54.9468C25.5478 54.9468 25.2149 54.912 24.9028 54.8424C24.5907 54.7659 24.3201 54.6581 24.0913 54.5189L24.4866 53.705C24.8404 53.9345 25.3085 54.0493 25.8912 54.0493C26.6472 54.0493 27.2368 53.8163 27.6599 53.3502C28.09 52.8771 28.305 52.1918 28.305 51.2944V51.0335C28.0969 51.3465 27.809 51.5866 27.4414 51.7535C27.0738 51.9135 26.6611 51.9935 26.2033 51.9935C25.7247 51.9935 25.2947 51.9031 24.9132 51.7222C24.5386 51.5413 24.2438 51.2839 24.0288 50.95C23.8207 50.6091 23.7167 50.2195 23.7167 49.7812C23.7167 49.3221 23.8277 48.9186 24.0496 48.5707C24.2785 48.2229 24.5872 47.955 24.9756 47.7672C25.364 47.5724 25.801 47.475 26.2866 47.475ZM26.3802 51.1483C26.7062 51.1483 26.9975 51.0857 27.2541 50.9604C27.5108 50.8352 27.7085 50.6648 27.8472 50.4491C27.9928 50.2334 28.0657 49.9934 28.0657 49.729C28.0657 49.4716 27.9963 49.2386 27.8576 49.0299C27.7258 48.8142 27.5281 48.6438 27.2645 48.5185C27.0079 48.3864 26.6958 48.3203 26.3282 48.3203C25.8496 48.3203 25.4611 48.449 25.1629 48.7064C24.8716 48.9638 24.7259 49.3082 24.7259 49.7395C24.7259 50.1708 24.875 50.5152 25.1733 50.7726C25.4715 51.023 25.8738 51.1483 26.3802 51.1483Z" fill="black"/>
<path d="M35.4635 47.5585V54.8633H34.4335V48.4664H32.7896V47.5585H35.4635Z" fill="black"/>
<path d="M47.8885 47.5585V54.8633H46.8585V48.4664H45.2146V47.5585H47.8885Z" fill="black"/>
<path d="M55.3473 54.9468C54.7716 54.9468 54.2583 54.8007 53.8074 54.5085C53.3635 54.2093 53.0133 53.778 52.7566 53.2145C52.5 52.651 52.3717 51.9831 52.3717 51.2109C52.3717 50.4387 52.5 49.7708 52.7566 49.2073C53.0133 48.6438 53.3635 48.2159 53.8074 47.9237C54.2583 47.6246 54.7716 47.475 55.3473 47.475C55.916 47.475 56.4224 47.6246 56.8663 47.9237C57.3172 48.2159 57.6709 48.6438 57.9275 49.2073C58.1842 49.7708 58.3125 50.4387 58.3125 51.2109C58.3125 51.9831 58.1842 52.651 57.9275 53.2145C57.6709 53.778 57.3172 54.2093 56.8663 54.5085C56.4224 54.8007 55.916 54.9468 55.3473 54.9468ZM55.3473 54.018C55.9299 54.018 56.3946 53.778 56.7414 53.298C57.0952 52.8179 57.2721 52.1222 57.2721 51.2109C57.2721 50.2995 57.0952 49.6038 56.7414 49.1238C56.3946 48.6438 55.9299 48.4037 55.3473 48.4037C54.7577 48.4037 54.286 48.6438 53.9323 49.1238C53.5855 49.6038 53.4121 50.2995 53.4121 51.2109C53.4121 52.1222 53.5855 52.8179 53.9323 53.298C54.286 53.778 54.7577 54.018 55.3473 54.018Z" fill="black"/>
<path d="M67.4363 47.5585V48.2681L64.4919 54.8633H63.3891L66.2711 48.4664H62.9417V49.7708H61.9429V47.5585H67.4363Z" fill="black"/>
<path d="M83.2588 53.0684H81.875V54.8633H80.8658V53.0684H76.8185V52.3379L80.5433 47.5585H81.6669L78.0983 52.171H80.897V50.5848H81.875V52.171H83.2588V53.0684Z" fill="black"/>
<path d="M89.9146 50.4282C90.3932 50.4282 90.8198 50.5187 91.1944 50.6995C91.5758 50.8804 91.8741 51.1413 92.0891 51.4822C92.3041 51.8161 92.4116 52.2023 92.4116 52.6405C92.4116 53.0997 92.2972 53.5032 92.0683 53.8511C91.8463 54.1989 91.5377 54.4702 91.1423 54.665C90.7539 54.8529 90.3169 54.9468 89.8314 54.9468C88.8534 54.9468 88.0973 54.6302 87.5633 53.9972C87.0361 53.3641 86.7725 52.4666 86.7725 51.3048C86.7725 50.4908 86.9147 49.7986 87.1991 49.2282C87.4904 48.6507 87.8927 48.2159 88.406 47.9237C88.9262 47.6246 89.5297 47.475 90.2163 47.475C90.5701 47.475 90.903 47.5133 91.2152 47.5898C91.5273 47.6594 91.7978 47.7637 92.0267 47.9029L91.6313 48.7168C91.2845 48.4872 90.8198 48.3724 90.2372 48.3724C89.4811 48.3724 88.8881 48.609 88.458 49.0821C88.028 49.5482 87.813 50.23 87.813 51.1274C87.813 51.2387 87.8164 51.3257 87.8234 51.3883C88.0315 51.0752 88.3158 50.8387 88.6765 50.6787C89.0441 50.5117 89.4568 50.4282 89.9146 50.4282ZM89.7898 54.1015C90.2684 54.1015 90.6568 53.9728 90.9551 53.7154C91.2533 53.458 91.4024 53.1136 91.4024 52.6823C91.4024 52.251 91.2498 51.9101 90.9446 51.6596C90.6464 51.4022 90.2441 51.2735 89.7377 51.2735C89.4118 51.2735 89.1204 51.3361 88.8638 51.4613C88.6141 51.5866 88.4164 51.757 88.2707 51.9727C88.132 52.1883 88.0627 52.4284 88.0627 52.6927C88.0627 52.9501 88.1286 53.1867 88.2603 53.4023C88.3991 53.611 88.5967 53.7815 88.8534 53.9137C89.117 54.0389 89.4291 54.1015 89.7898 54.1015Z" fill="black"/>
<path d="M99.2261 50.4282C99.7047 50.4282 100.131 50.5187 100.506 50.6995C100.887 50.8804 101.186 51.1413 101.401 51.4822C101.616 51.8161 101.723 52.2023 101.723 52.6405C101.723 53.0997 101.609 53.5032 101.38 53.8511C101.158 54.1989 100.849 54.4702 100.454 54.665C100.065 54.8529 99.6284 54.9468 99.1428 54.9468C98.1648 54.9468 97.4088 54.6302 96.8747 53.9972C96.3476 53.3641 96.084 52.4666 96.084 51.3048C96.084 50.4908 96.2262 49.7986 96.5106 49.2282C96.8019 48.6507 97.2042 48.2159 97.7175 47.9237C98.2377 47.6246 98.8411 47.475 99.5278 47.475C99.8815 47.475 100.214 47.5133 100.527 47.5898C100.839 47.6594 101.109 47.7637 101.338 47.9029L100.943 48.7168C100.596 48.4872 100.131 48.3724 99.5486 48.3724C98.7925 48.3724 98.1995 48.609 97.7695 49.0821C97.3394 49.5482 97.1244 50.23 97.1244 51.1274C97.1244 51.2387 97.1279 51.3257 97.1348 51.3883C97.3429 51.0752 97.6273 50.8387 97.988 50.6787C98.3556 50.5117 98.7683 50.4282 99.2261 50.4282ZM99.1012 54.1015C99.5798 54.1015 99.9682 53.9728 100.266 53.7154C100.565 53.458 100.714 53.1136 100.714 52.6823C100.714 52.251 100.561 51.9101 100.256 51.6596C99.9578 51.4022 99.5555 51.2735 99.0492 51.2735C98.7232 51.2735 98.4319 51.3361 98.1752 51.4613C97.9255 51.5866 97.7279 51.757 97.5822 51.9727C97.4435 52.1883 97.3741 52.4284 97.3741 52.6927C97.3741 52.9501 97.44 53.1867 97.5718 53.4023C97.7105 53.611 97.9082 53.7815 98.1648 53.9137C98.4284 54.0389 98.7405 54.1015 99.1012 54.1015Z" fill="black"/>
<path d="M114.222 50.4282C114.7 50.4282 115.127 50.5187 115.501 50.6995C115.883 50.8804 116.181 51.1413 116.396 51.4822C116.611 51.8161 116.719 52.2023 116.719 52.6405C116.719 53.0997 116.604 53.5032 116.375 53.8511C116.153 54.1989 115.845 54.4702 115.449 54.665C115.061 54.8529 114.624 54.9468 114.138 54.9468C113.16 54.9468 112.404 54.6302 111.87 53.9972C111.343 53.3641 111.08 52.4666 111.08 51.3048C111.08 50.4908 111.222 49.7986 111.506 49.2282C111.798 48.6507 112.2 48.2159 112.713 47.9237C113.233 47.6246 113.837 47.475 114.523 47.475C114.877 47.475 115.21 47.5133 115.522 47.5898C115.834 47.6594 116.105 47.7637 116.334 47.9029L115.938 48.7168C115.592 48.4872 115.127 48.3724 114.544 48.3724C113.788 48.3724 113.195 48.609 112.765 49.0821C112.335 49.5482 112.12 50.23 112.12 51.1274C112.12 51.2387 112.124 51.3257 112.13 51.3883C112.339 51.0752 112.623 50.8387 112.984 50.6787C113.351 50.5117 113.764 50.4282 114.222 50.4282ZM114.097 54.1015C114.575 54.1015 114.964 53.9728 115.262 53.7154C115.56 53.458 115.709 53.1136 115.709 52.6823C115.709 52.251 115.557 51.9101 115.252 51.6596C114.953 51.4022 114.551 51.2735 114.045 51.2735C113.719 51.2735 113.427 51.3361 113.171 51.4613C112.921 51.5866 112.723 51.757 112.578 51.9727C112.439 52.1883 112.37 52.4284 112.37 52.6927C112.37 52.9501 112.436 53.1867 112.567 53.4023C112.706 53.611 112.904 53.7815 113.16 53.9137C113.424 54.0389 113.736 54.1015 114.097 54.1015Z" fill="black"/>
<path d="M123.533 50.4282C124.012 50.4282 124.438 50.5187 124.813 50.6995C125.194 50.8804 125.493 51.1413 125.708 51.4822C125.923 51.8161 126.03 52.2023 126.03 52.6405C126.03 53.0997 125.916 53.5032 125.687 53.8511C125.465 54.1989 125.156 54.4702 124.761 54.665C124.372 54.8529 123.935 54.9468 123.45 54.9468C122.472 54.9468 121.716 54.6302 121.182 53.9972C120.655 53.3641 120.391 52.4666 120.391 51.3048C120.391 50.4908 120.533 49.7986 120.818 49.2282C121.109 48.6507 121.511 48.2159 122.025 47.9237C122.545 47.6246 123.148 47.475 123.835 47.475C124.189 47.475 124.522 47.5133 124.834 47.5898C125.146 47.6594 125.416 47.7637 125.645 47.9029L125.25 48.7168C124.903 48.4872 124.438 48.3724 123.856 48.3724C123.1 48.3724 122.507 48.609 122.077 49.0821C121.646 49.5482 121.431 50.23 121.431 51.1274C121.431 51.2387 121.435 51.3257 121.442 51.3883C121.65 51.0752 121.934 50.8387 122.295 50.6787C122.663 50.5117 123.075 50.4282 123.533 50.4282ZM123.408 54.1015C123.887 54.1015 124.275 53.9728 124.574 53.7154C124.872 53.458 125.021 53.1136 125.021 52.6823C125.021 52.251 124.868 51.9101 124.563 51.6596C124.265 51.4022 123.863 51.2735 123.356 51.2735C123.03 51.2735 122.739 51.3361 122.482 51.4613C122.233 51.5866 122.035 51.757 121.889 51.9727C121.751 52.1883 121.681 52.4284 121.681 52.6927C121.681 52.9501 121.747 53.1867 121.879 53.4023C122.018 53.611 122.215 53.7815 122.472 53.9137C122.735 54.0389 123.048 54.1015 123.408 54.1015Z" fill="black"/>
<path d="M132.845 50.4282C133.323 50.4282 133.75 50.5187 134.124 50.6995C134.506 50.8804 134.804 51.1413 135.019 51.4822C135.234 51.8161 135.342 52.2023 135.342 52.6405C135.342 53.0997 135.227 53.5032 134.998 53.8511C134.776 54.1989 134.468 54.4702 134.072 54.665C133.684 54.8529 133.247 54.9468 132.761 54.9468C131.783 54.9468 131.027 54.6302 130.493 53.9972C129.966 53.3641 129.702 52.4666 129.702 51.3048C129.702 50.4908 129.845 49.7986 130.129 49.2282C130.42 48.6507 130.823 48.2159 131.336 47.9237C131.856 47.6246 132.46 47.475 133.146 47.475C133.5 47.475 133.833 47.5133 134.145 47.5898C134.457 47.6594 134.728 47.7637 134.957 47.9029L134.561 48.7168C134.214 48.4872 133.75 48.3724 133.167 48.3724C132.411 48.3724 131.818 48.609 131.388 49.0821C130.958 49.5482 130.743 50.23 130.743 51.1274C130.743 51.2387 130.746 51.3257 130.753 51.3883C130.961 51.0752 131.246 50.8387 131.606 50.6787C131.974 50.5117 132.387 50.4282 132.845 50.4282ZM132.72 54.1015C133.198 54.1015 133.587 53.9728 133.885 53.7154C134.183 53.458 134.332 53.1136 134.332 52.6823C134.332 52.251 134.18 51.9101 133.875 51.6596C133.576 51.4022 133.174 51.2735 132.668 51.2735C132.342 51.2735 132.05 51.3361 131.794 51.4613C131.544 51.5866 131.346 51.757 131.201 51.9727C131.062 52.1883 130.993 52.4284 130.993 52.6927C130.993 52.9501 131.059 53.1867 131.19 53.4023C131.329 53.611 131.527 53.7815 131.783 53.9137C132.047 54.0389 132.359 54.1015 132.72 54.1015Z" fill="black"/>
<path d="M147.06 47.475C148.038 47.475 148.79 47.7915 149.318 48.4246C149.852 49.0577 150.119 49.9552 150.119 51.117C150.119 51.9309 149.973 52.6266 149.682 53.2041C149.397 53.7745 148.995 54.2093 148.475 54.5085C147.962 54.8007 147.362 54.9468 146.675 54.9468C146.321 54.9468 145.988 54.912 145.676 54.8424C145.364 54.7659 145.093 54.6581 144.865 54.5189L145.26 53.705C145.614 53.9345 146.082 54.0493 146.665 54.0493C147.421 54.0493 148.01 53.8163 148.433 53.3502C148.863 52.8771 149.078 52.1918 149.078 51.2944V51.0335C148.87 51.3465 148.582 51.5866 148.215 51.7535C147.847 51.9135 147.434 51.9935 146.977 51.9935C146.498 51.9935 146.068 51.9031 145.687 51.7222C145.312 51.5413 145.017 51.2839 144.802 50.95C144.594 50.6091 144.49 50.2195 144.49 49.7812C144.49 49.3221 144.601 48.9186 144.823 48.5707C145.052 48.2229 145.361 47.955 145.749 47.7672C146.137 47.5724 146.574 47.475 147.06 47.475ZM147.154 51.1483C147.48 51.1483 147.771 51.0857 148.027 50.9604C148.284 50.8352 148.482 50.6648 148.621 50.4491C148.766 50.2334 148.839 49.9934 148.839 49.729C148.839 49.4716 148.77 49.2386 148.631 49.0299C148.499 48.8142 148.301 48.6438 148.038 48.5185C147.781 48.3864 147.469 48.3203 147.102 48.3203C146.623 48.3203 146.234 48.449 145.936 48.7064C145.645 48.9638 145.499 49.3082 145.499 49.7395C145.499 50.1708 145.648 50.5152 145.947 50.7726C146.245 51.023 146.647 51.1483 147.154 51.1483Z" fill="black"/>
</svg>
