<svg width="20" height="21" viewBox="0 0 20 21" fill="none" xmlns="http://www.w3.org/2000/svg">
<path fill-rule="evenodd" clip-rule="evenodd" d="M10.1431 15.9974C6.79801 15.9974 4.10038 13.2998 4.10038 9.95475C4.10038 7.04131 6.04267 4.66741 8.8482 4.01998C9.60353 3.80417 10.251 3.26464 10.3589 2.4014C10.4668 1.75398 10.251 1.10655 9.81934 0.567022C9.27982 0.135403 8.63239 -0.080407 7.98496 0.0274978C3.45296 1.10655 0 5.09903 0 9.95475C0 15.5658 4.532 20.0978 10.1431 20.0978C14.8909 20.0978 18.8834 16.8607 19.9624 12.4366C20.0703 11.7891 19.9624 11.1417 19.4229 10.6022C18.9913 10.0627 18.3438 9.84684 17.6964 9.95475C16.8332 10.0627 16.1857 10.6022 15.9699 11.4654C15.3225 14.0551 12.9486 15.9974 10.1431 15.9974ZM13.2723 4.77531C14.1355 5.31484 14.8909 6.07017 15.4304 6.93341C15.7541 7.68874 16.6173 8.01246 17.3727 7.90455C18.128 7.79665 18.6675 7.47293 18.9913 6.8255C19.2071 6.17808 19.2071 5.53065 18.8834 4.88322C18.0201 3.48045 16.8332 2.1856 15.4304 1.32236C14.8909 0.998642 14.1355 0.890737 13.4881 1.21445C12.9486 1.53817 12.517 2.07769 12.4091 2.72512C12.1932 3.58836 12.6249 4.34369 13.2723 4.77531Z" fill="url(#paint0_linear_1034_8528)"/>
<defs>
<linearGradient id="paint0_linear_1034_8528" x1="0" y1="10.0489" x2="20" y2="10.0489" gradientUnits="userSpaceOnUse">
<stop stop-color="#4776E6"/>
<stop offset="1" stop-color="#8E54E9"/>
</linearGradient>
</defs>
</svg>
