<svg width="20" height="16" viewBox="0 0 20 16" fill="none" xmlns="http://www.w3.org/2000/svg">
<path fill-rule="evenodd" clip-rule="evenodd" d="M2.44681 0H17.5532C18.8298 0 20 1.17021 20 2.44681V6.38298V10.4255V13.617C20 14.8936 18.8298 15.9574 17.5532 15.9574H2.44681C1.06383 15.9574 0 14.8936 0 13.617V10.4255V6.38298V2.44681C0 1.17021 1.06383 0 2.44681 0ZM2.44681 7.97872H5.10638C6.06383 7.97872 6.91489 8.51064 7.34043 9.3617C7.76596 10.3191 8.82979 11.0638 10 11.0638C11.1702 11.0638 12.1277 10.3191 12.6596 9.3617C13.0851 8.51064 13.8298 7.97872 14.7872 7.97872H17.5532C17.6596 7.97872 17.8723 8.08511 17.9787 8.08511V6.38298C17.9787 6.17021 17.766 6.06383 17.5532 6.06383H2.44681C2.12766 6.06383 2.02128 6.17021 2.02128 6.38298V8.08511C2.12766 8.08511 2.23404 7.97872 2.44681 7.97872ZM2.44681 4.04255H17.5532C17.6596 4.04255 17.8723 4.04255 17.9787 4.04255V2.44681C17.9787 2.23404 17.766 2.02128 17.5532 2.02128H2.44681C2.12766 2.02128 2.02128 2.23404 2.02128 2.44681V4.04255C2.12766 4.04255 2.23404 4.04255 2.44681 4.04255Z" fill="url(#paint0_linear_1034_8535)"/>
<defs>
<linearGradient id="paint0_linear_1034_8535" x1="0" y1="7.97872" x2="20" y2="7.97872" gradientUnits="userSpaceOnUse">
<stop stop-color="#4776E6"/>
<stop offset="1" stop-color="#8E54E9"/>
</linearGradient>
</defs>
</svg>
